<?xml version="1.0" standalone="no"?>
<!DOCTYPE svg PUBLIC "-//W3C//DTD SVG 1.0//EN" "http://www.w3.org/TR/2001/REC-SVG-20010904/DTD/svg10.dtd">
<svg xmlns="http://www.w3.org/2000/svg" xmlns:xlink="http://www.w3.org/1999/xlink"  fill="none" id="body_1" width="125" height="22">

<g  transform="matrix(0.26709402 0 0 0.26709402 -0 0.098289594)">
	<g transform="matrix(0.1 0 -0 -0.1 0 82)">
        <path d="M2124 790C 2091 777 2060 731 2060 694C 2060 658 2097 620 2132 620C 2167 620 2211 651 2226 686C 2245 730 2235 767 2199 785C 2168 802 2155 803 2124 790z" stroke="none" fill="#E94560" fill-rule="nonzero" />
        <path d="M3937 773C 3933 770 3930 756 3930 743C 3930 723 3935 720 3965 720L3965 720L4000 720L4002 503L4005 285L4033 272C 4059 259 4060 256 4060 184L4060 184L4060 110L4090 110C 4116 110 4120 106 4120 82C 4120 30 4179 1 4214 36C 4229 51 4234 70 4231 98C 4230 107 4255 110 4330 110L4330 110L4430 110L4424 86C 4417 56 4449 20 4484 20C 4512 20 4540 53 4540 87C 4540 106 4545 110 4570 110C 4597 110 4600 113 4600 140L4600 140L4600 170L4355 170L4110 170L4110 215L4110 260L4358 260C 4537 260 4612 264 4630 273L4630 273L4655 286L4658 488L4660 690L4355 690L4050 690L4050 735L4050 780L3997 780C 3967 780 3940 777 3937 773zM4118 598C 4115 569 4112 565 4085 565C 4064 565 4054 570 4052 583C 4046 615 4058 630 4090 630C 4119 630 4121 628 4118 598zM4238 598C 4235 569 4232 565 4205 565C 4184 565 4174 570 4172 583C 4166 615 4178 630 4210 630C 4239 630 4241 628 4238 598zM4360 595C 4360 563 4358 560 4330 560C 4302 560 4300 563 4300 595C 4300 627 4302 630 4330 630C 4358 630 4360 627 4360 595zM4480 595C 4480 563 4478 560 4450 560C 4422 560 4420 563 4420 595C 4420 627 4422 630 4450 630C 4478 630 4480 627 4480 595zM4605 595C 4605 568 4601 565 4573 562C 4541 559 4540 560 4540 595C 4540 630 4541 631 4573 628C 4601 625 4605 622 4605 595zM4118 473C 4121 441 4120 440 4086 440C 4053 440 4050 443 4050 468C 4050 504 4058 512 4090 508C 4110 506 4116 499 4118 473zM4240 474C 4240 440 4239 439 4208 442C 4154 447 4155 510 4210 510C 4238 510 4240 507 4240 474zM4360 475C 4360 443 4358 440 4330 440C 4302 440 4300 443 4300 475C 4300 507 4302 510 4330 510C 4358 510 4360 507 4360 475zM4480 475C 4480 443 4478 440 4450 440C 4422 440 4420 443 4420 475C 4420 507 4422 510 4450 510C 4478 510 4480 507 4480 475zM4605 475C 4605 448 4601 445 4573 442C 4541 439 4540 440 4540 475C 4540 510 4541 511 4573 508C 4601 505 4605 502 4605 475zM4120 350C 4120 322 4117 320 4085 320C 4053 320 4050 322 4050 350C 4050 378 4053 380 4085 380C 4117 380 4120 378 4120 350zM4240 349C 4240 321 4238 319 4208 322C 4180 324 4174 330 4172 353C 4169 378 4171 380 4204 380C 4237 380 4240 378 4240 349zM4360 350C 4360 323 4357 320 4330 320C 4303 320 4300 323 4300 350C 4300 377 4303 380 4330 380C 4357 380 4360 377 4360 350zM4480 350C 4480 323 4477 320 4450 320C 4423 320 4420 323 4420 350C 4420 377 4423 380 4450 380C 4477 380 4480 377 4480 350zM4608 353C 4606 330 4600 324 4573 322C 4542 319 4540 321 4540 349C 4540 378 4543 380 4576 380C 4609 380 4611 378 4608 353z" stroke="none" fill="#E94560" fill-rule="nonzero" />
        <path d="M275 561C 177 536 94 463 61 374C 24 276 37 144 88 87C 136 34 254 8 345 32C 389 43 395 48 398 74C 400 89 399 113 396 126C 390 148 387 149 320 143C 266 138 246 141 226 154C 190 177 175 240 189 308C 210 415 268 457 380 446L380 446L446 440L469 486C 481 512 490 534 488 535C 456 561 332 576 275 561z" stroke="none" fill="#E94560" fill-rule="nonzero" />
        <path d="M740 557C 572 509 469 332 510 161C 539 37 662 -13 782 50C 804 62 824 70 825 68C 826 66 832 56 838 44C 848 25 854 24 907 32C 938 37 966 42 967 44C 969 46 966 67 961 91C 944 162 948 205 986 363C 1005 445 1019 518 1016 525C 1004 558 817 579 740 557zM860 441C 860 435 849 385 835 328C 821 271 810 215 810 203C 810 151 703 118 667 158C 641 187 635 260 654 317C 670 364 726 431 760 443C 786 452 860 451 860 441z" stroke="none" fill="#E94560" fill-rule="nonzero" />
        <path d="M1290 560C 1199 542 1186 535 1178 503C 1174 486 1146 372 1116 251L1116 251L1063 30L1135 30L1206 30L1256 238L1306 445L1355 445C 1398 445 1406 442 1419 418C 1436 389 1431 359 1376 128L1376 128L1352 30L1424 30L1496 30L1533 188C 1554 274 1570 363 1570 386C 1570 420 1574 429 1595 438C 1638 458 1687 453 1704 428C 1727 396 1724 375 1681 193L1681 193L1643 30L1715 30L1786 30L1823 187C 1879 424 1871 502 1788 547C 1740 572 1638 570 1577 543L1577 543L1530 521L1494 542C 1454 565 1360 574 1290 560z" stroke="none" fill="#E94560" fill-rule="nonzero" />
        <path d="M2407 556C 2318 532 2270 475 2270 395C 2270 337 2299 300 2376 259C 2413 240 2450 214 2457 203C 2470 184 2469 179 2451 161C 2425 135 2338 132 2283 155C 2264 163 2243 170 2238 170C 2230 170 2190 88 2190 70C 2190 48 2287 25 2375 25C 2455 26 2471 29 2519 55C 2588 93 2613 135 2607 203C 2602 263 2578 290 2488 337C 2414 376 2398 400 2427 432C 2442 449 2453 451 2505 447C 2538 444 2576 438 2590 435C 2613 429 2618 434 2639 476C 2660 521 2661 525 2645 536C 2623 552 2540 570 2492 569C 2472 569 2433 563 2407 556z" stroke="none" fill="#E94560" fill-rule="nonzero" />
        <path d="M2941 559C 2826 525 2736 406 2724 268C 2709 114 2781 27 2925 26C 3044 25 3130 82 3187 197C 3222 269 3230 380 3206 445C 3168 544 3057 592 2941 559zM3056 429C 3071 412 3075 393 3075 336C 3074 256 3050 198 3004 161C 2970 134 2909 133 2887 158C 2842 208 2863 355 2925 417C 2966 458 3025 463 3056 429z" stroke="none" fill="#E94560" fill-rule="nonzero" />
        <path d="M3525 564C 3514 562 3481 555 3453 549C 3424 543 3398 535 3395 530C 3390 522 3326 267 3275 52C 3270 30 3271 29 3342 32L3342 32L3414 35L3464 240L3515 445L3561 448C 3652 454 3658 419 3605 200C 3586 120 3570 49 3570 43C 3570 34 3590 30 3639 30L3639 30L3708 30L3747 188C 3805 428 3798 493 3711 544C 3679 562 3570 574 3525 564z" stroke="none" fill="#E94560" fill-rule="nonzero" />
        <path d="M1985 313C 1953 176 1925 57 1922 48C 1918 32 1926 30 1988 30C 2047 30 2060 33 2064 48C 2067 57 2094 171 2125 300C 2155 429 2182 541 2185 548C 2188 557 2171 560 2117 560L2117 560L2044 560L1985 313z" stroke="none" fill="#E94560" fill-rule="nonzero" />
	</g>
</g>
</svg>